<svg id="Layer_1" data-name="Layer 1" xmlns="http://www.w3.org/2000/svg" viewBox="0 0 100 56.77"><defs><style>.cls-1{fill:none;}</style></defs><title>delivery-icon-4</title><polygon class="cls-1" points="26.08 6.09 18.23 21 35.65 21 35.65 6.09 35.65 6 26.13 6 26.08 6.09"/><path class="cls-1" d="M22.66,42.29a3.89,3.89,0,1,0,3.9,3.9h0A3.9,3.9,0,0,0,22.66,42.29Z" transform="translate(0 0.18)"/><path class="cls-1" d="M73.45,42.29a3.89,3.89,0,1,0,3.9,3.9A3.9,3.9,0,0,0,73.45,42.29Z" transform="translate(0 0.18)"/><path class="cls-1" d="M71.21,6.43a13.22,13.22,0,1,0-.11,26.43h0A13.22,13.22,0,0,0,71.21,6.43ZM71.13,29.84h0A10.21,10.21,0,1,1,81.32,19.63,10.22,10.22,0,0,1,71.12,29.84Z" transform="translate(0 0.18)"/><path d="M95.47,38.25V2.32a2.56,2.56,0,0,0-2.53-2.5H23.65a2.56,2.56,0,0,0-2.58,2.5v0.5l-1.37,3-0.05.1-8,15.16L1.58,26.87A2.51,2.51,0,0,0,0,29.19V44.68a2.41,2.41,0,0,0,2.4,2.42h9.89A10.4,10.4,0,0,0,33,47.1H63.08a10.4,10.4,0,0,0,20.72,0H100V38.25H95.47ZM26.56,46.19a3.9,3.9,0,1,1-3.9-3.9,3.9,3.9,0,0,1,3.9,3.9h0ZM35.65,5.92v14.9H18.23l7.85-14.9,0.05-.1h9.52v0.1ZM73.43,50.07a3.89,3.89,0,1,1,3.92-3.88A3.9,3.9,0,0,1,73.43,50.07ZM84,22.71A13.2,13.2,0,0,1,71.15,32.86h0A13.26,13.26,0,1,1,84,22.71Z" transform="translate(0 0.18)"/><path d="M71.11,9.43a10.21,10.21,0,0,0,0,20.41h0A10.21,10.21,0,1,0,71.11,9.43ZM68.47,19.91a0.47,0.47,0,0,1-.3.11H66.9v2.06a0.78,0.78,0,0,0,.22.76,1.91,1.91,0,0,0,.62.1v0h0.06v0.47H64.4V23h0.28a0.5,0.5,0,0,0,.19,0h0A0.5,0.5,0,0,0,65,22.88h0a0.5,0.5,0,0,0,.1-0.12l0,0a0.5,0.5,0,0,0,0-.12,0.49,0.49,0,0,0,0-.14h0V17.21c0-.55-0.16-0.67-0.82-0.78h0V16h5.73v1.41h0a1,1,0,0,1-.36.32c-0.25-1.3-.41-1.09-1.32-1.09H66.86v2.64h2l0,0h0.1A6.28,6.28,0,0,1,68.47,19.91Zm2.23,0.74c-0.75.49-1.26,0.59-1.57,0.16A0.74,0.74,0,0,1,69,20.45a0.91,0.91,0,0,1,.62-1,1.6,1.6,0,0,1-.16-0.33,0.49,0.49,0,0,1,.11-0.68,0.91,0.91,0,0,1,1.14.06,0.41,0.41,0,0,1,.09.21c0.1,0.2,0,.39-0.28.66L71,19.94l0.31-.6L71,19.13h0.13L71,19h1L72,19.11l-0.06,0h0l0.06,0.08a1.23,1.23,0,0,0-.8.8,0.45,0.45,0,0,0-.07.31,0.44,0.44,0,0,0,.12.17,0.32,0.32,0,0,0,.42.17l0.05,0h0.09l0,0.1h0l0,0.1a3.39,3.39,0,0,1-.49.24,0.68,0.68,0,0,1-.78-0.36Zm7.44,0.77v0.05a2,2,0,0,1-.06.29c0,0.06,0,.12-0.06.18l-0.06.16,0,0.09s-0.06.07-.08,0.11l-0.11.16a2,2,0,0,1-.52.49,3.15,3.15,0,0,1-1.74.53c-1.52,0-3,0-4.61,0h0V22.95a4.65,4.65,0,0,1,.67-0.1,0.73,0.73,0,0,0,.67-0.75,5.27,5.27,0,0,0,0-.53V17.35a2.71,2.71,0,0,0,0-.43c-0.08-.36-0.3-0.43-0.88-0.43H70.94V16h0v0c1.76,0,3.5-.39,5.23.05a2.08,2.08,0,0,1,1.32.91,1.37,1.37,0,0,1,.19.36,1.35,1.35,0,0,1,0,.68v0a1.37,1.37,0,0,1-.15.42l-0.07.11a1.37,1.37,0,0,1-.24.26s0,0.06-.08.09a1.37,1.37,0,0,1-.36.19l-0.37.15c0.21,0.08.42,0.18,0.63,0.28A2,2,0,0,1,78.13,21.42Z" transform="translate(0 0.18)"/><path d="M75.2,19.55a3.49,3.49,0,0,0-.4-0.06,8.87,8.87,0,0,0-1-.05c0,0.83,0,1.58,0,2.36a2.75,2.75,0,0,0,0,.33s0,0,0,0a0.76,0.76,0,0,0,.39.67l0.12,0a1.56,1.56,0,0,0,2-1,2.2,2.2,0,0,0-.06-1.46A1.3,1.3,0,0,0,75.2,19.55Z" transform="translate(0 0.18)"/><path d="M75.94,18.27A1,1,0,0,0,76,17.93a1.38,1.38,0,0,0-.67-1.44,2.74,2.74,0,0,0-1.59-.17V19A9.86,9.86,0,0,0,75,18.9,1.05,1.05,0,0,0,75.94,18.27Z" transform="translate(0 0.18)"/><path d="M69.85,19.56a0.5,0.5,0,0,0-.31.6,0.83,0.83,0,0,0,.39.47,1.37,1.37,0,0,0,.62-0.12V20.38l-0.69-.8v0Z" transform="translate(0 0.18)"/><path d="M70.19,19.17c0.17-.22.27-0.42,0.06-0.58a0.37,0.37,0,0,0-.33,0h0C69.78,18.9,70,19,70.19,19.17Z" transform="translate(0 0.18)"/></svg>