<svg id="Layer_1" data-name="Layer 1" xmlns="http://www.w3.org/2000/svg" viewBox="0 0 37.48 57.16"><title>rosette-icon</title><path d="M23.54,39.95a7.72,7.72,0,0,1-4.32,1.75,7.72,7.72,0,0,1-4.32-1.75,8,8,0,0,0-1.72-1,7,7,0,0,0-1.81-.22V58s5.34-3.86,7.86-8.27C21.58,54.11,27.07,58,27.07,58V38.73a7.06,7.06,0,0,0-1.81.22A8.07,8.07,0,0,0,23.54,39.95Z" transform="translate(-0.48 -0.81)"/><path d="M37.81,14.31c-0.61-1.89-3.09-2.83-4.23-4.4s-1.29-4.23-2.87-5.38-4.12-.46-6-1.07S21.23,0.81,19.22.81s-3.67,2.07-5.49,2.66-4.43-.07-6,1.07S6,8.34,4.85,9.92,1.23,12.43.62,14.31s0.84,4,.84,6S0,24.58.62,26.4s3.09,2.83,4.23,4.4S6.14,35,7.72,36.17a6.64,6.64,0,0,0,3.64.77,9,9,0,0,1,2.36.3c1.82,0.59,3.48,2.66,5.49,2.66s3.67-2.07,5.49-2.66a9,9,0,0,1,2.36-.3,6.61,6.61,0,0,0,3.64-.77c1.58-1.15,1.72-3.8,2.87-5.38s3.62-2.52,4.23-4.4-0.84-4-.84-6S38.41,16.13,37.81,14.31ZM25.64,32.85a14,14,0,1,1,7.62-12.49A13.92,13.92,0,0,1,25.64,32.85Z" transform="translate(-0.48 -0.81)"/><path d="M19.22,8A12.32,12.32,0,0,0,17,32.47a12.13,12.13,0,0,0,4.38,0A12.32,12.32,0,0,0,19.22,8Z" transform="translate(-0.48 -0.81)"/></svg>