<?xml version="1.0" encoding="iso-8859-1"?>
<!-- Generator: Adobe Illustrator 19.0.0, SVG Export Plug-In . SVG Version: 6.00 Build 0)  -->
<svg version="1.1" id="Capa_1" xmlns="http://www.w3.org/2000/svg" xmlns:xlink="http://www.w3.org/1999/xlink" x="0px" y="0px"
	 viewBox="0 0 512 512" style="enable-background:new 0 0 512 512;" xml:space="preserve">
<path style="fill:#8DF4FF;" d="M511.74,255.935c0,68.338-26.618,132.598-74.945,180.925
	c-48.317,48.327-112.577,74.945-180.925,74.945h-0.8c-68.038-0.21-131.988-26.807-180.126-74.945
	C26.618,388.533,0,324.273,0,255.935C0,187.587,26.618,123.337,74.945,75.01C123.082,26.872,187.032,0.275,255.07,0.075
	c0.27-0.01,0.53-0.01,0.8-0.01c68.348,0,132.608,26.618,180.925,74.945C485.123,123.337,511.74,187.587,511.74,255.935z"/>
<g>
	<path style="fill:#00E0FF;" d="M511.74,255.935c0,68.338-26.618,132.598-74.945,180.925
		c-48.317,48.327-112.577,74.945-180.925,74.945h-0.8V0.075c0.27-0.01,0.53-0.01,0.8-0.01c68.348,0,132.608,26.618,180.925,74.945
		C485.123,123.337,511.74,187.587,511.74,255.935z"/>
	<path style="fill:#00E0FF;" d="M460.494,255.935c0,5.038-0.18,10.035-0.54,14.983c-7.337,101.343-88.529,182.534-189.871,189.881
		c-4.958,0.37-9.965,0.55-15.013,0.55c-4.948,0-9.855-0.18-14.713-0.53C138.885,453.612,57.533,372.36,50.186,270.918
		c-0.36-4.948-0.54-9.945-0.54-14.983c0-5.048,0.18-10.045,0.55-15.003C57.543,139.58,138.735,58.398,240.077,51.061
		c4.948-0.37,9.955-0.55,14.993-0.55s10.045,0.18,14.993,0.55c101.343,7.337,182.534,88.519,189.881,189.871
		C460.314,245.89,460.494,250.887,460.494,255.935z"/>
</g>
<path style="fill:#009AF2;" d="M460.494,255.935c0,5.038-0.18,10.035-0.54,14.983c-7.337,101.343-88.529,182.534-189.871,189.881
	c-4.958,0.37-9.965,0.55-15.013,0.55V50.511c5.038,0,10.045,0.18,14.993,0.55c101.343,7.337,182.534,88.519,189.881,189.871
	C460.314,245.89,460.494,250.887,460.494,255.935z"/>
<path style="fill:#8DF4FF;" d="M362.33,255.925c0,59.142-48.117,107.26-107.26,107.26s-107.26-48.117-107.26-107.26
	s48.117-107.26,107.26-107.26S362.33,196.783,362.33,255.925z"/>
<path style="fill:#00E0FF;" d="M362.33,255.925c0,59.142-48.117,107.26-107.26,107.26V148.665
	C314.213,148.665,362.33,196.783,362.33,255.925z"/>
<path style="fill:#FF6A00;" d="M460.494,255.935c0,5.038-0.18,10.035-0.54,14.983H270.343l-0.26,189.881
	c-4.958,0.37-9.965,0.55-15.013,0.55c-4.948,0-9.855-0.18-14.713-0.53V270.918H50.186c-0.36-4.948-0.54-9.945-0.54-14.983
	c0-5.048,0.18-10.045,0.55-15.003h189.881V51.061c4.948-0.37,9.955-0.55,14.993-0.55c5.038,0,10.045,0.18,14.993,0.55v189.871
	h189.881C460.314,245.89,460.494,250.887,460.494,255.935z"/>
<path style="fill:#00497B;" d="M437.055,75.14C388.728,26.812,324.478,0.195,256.13,0.195c-0.35,0-0.71,0-1.059,0.01
	C187.122,0.475,123.282,27.062,75.205,75.14C26.877,123.467,0.26,187.717,0.26,256.065S26.877,388.663,75.205,436.99
	c48.077,48.077,111.918,74.665,179.866,74.935c0.35,0.01,0.71,0.01,1.059,0.01c68.348,0,132.598-26.618,180.925-74.945
	S512,324.413,512,256.065S485.382,123.467,437.055,75.14z M415.855,415.79c-42.67,42.66-99.393,66.159-159.725,66.159
	c-0.35,0-0.71,0-1.059-0.01c-59.932-0.27-116.246-23.739-158.666-66.149c-42.66-42.67-66.159-99.393-66.159-159.725
	S53.745,139.01,96.405,96.34c42.42-42.41,98.734-65.879,158.666-66.149c0.35-0.01,0.71-0.01,1.059-0.01
	c60.332,0,117.055,23.499,159.725,66.159c42.66,42.67,66.159,99.393,66.159,159.725S458.515,373.12,415.855,415.79z"/>
<path style="fill:#FF3A00;" d="M270.083,460.799c-4.958,0.37-9.965,0.55-15.013,0.55V50.511c5.038,0,10.045,0.18,14.993,0.55
	v189.871h189.881c0.37,4.958,0.55,9.955,0.55,15.003c0,5.038-0.18,10.035-0.54,14.983H270.343L270.083,460.799z"/>
<path style="fill:#00345A;" d="M512,256.065c0,68.348-26.618,132.598-74.945,180.925s-112.577,74.945-180.925,74.945
	c-0.35,0-0.71,0-1.059-0.01v-29.986c0.35,0.01,0.71,0.01,1.059,0.01c60.332,0,117.055-23.499,159.725-66.159
	c42.66-42.67,66.159-99.393,66.159-159.725S458.515,139.01,415.855,96.34c-42.67-42.66-99.393-66.159-159.725-66.159
	c-0.35,0-0.71,0-1.059,0.01V0.205c0.35-0.01,0.71-0.01,1.059-0.01c68.348,0,132.598,26.618,180.925,74.945S512,187.717,512,256.065z
	"/>
<g>
</g>
<g>
</g>
<g>
</g>
<g>
</g>
<g>
</g>
<g>
</g>
<g>
</g>
<g>
</g>
<g>
</g>
<g>
</g>
<g>
</g>
<g>
</g>
<g>
</g>
<g>
</g>
<g>
</g>
</svg>
